<?xml version="1.0" encoding="UTF-8" standalone="no"?>
<svg width="112px" height="32px" viewBox="0 0 112 32" version="1.1" xmlns="http://www.w3.org/2000/svg" xmlns:xlink="http://www.w3.org/1999/xlink">
    <!-- Generator: Sketch 45.2 (43514) - http://www.bohemiancoding.com/sketch -->
    <title>Byko</title>
    <desc>Created with Sketch.</desc>
    <defs>
        <polygon id="path-1" points="1.50474074 0.181079084 0.0642962963 0.181079084 0.0642962963 0.0816802478 1.50474074 0.0816802478 1.50474074 0.181079084"></polygon>
    </defs>
    <g id="Welcome" stroke="none" stroke-width="1" fill="none" fill-rule="evenodd">
        <g id="Mobile-Front" transform="translate(-131.000000, -23.000000)">
            <g id="Header">
                <g id="Byko" transform="translate(131.000000, 22.000000)">
                    <g id="Group-6" transform="translate(0.854962, 0.218330)">
                        <path d="M8.32779372,6.68543976 L14.6205345,6.68543976 C16.3036456,6.68543976 16.6873493,7.24626755 16.6873493,8.01300813 C16.6873493,8.83872875 16.3036456,9.39748707 14.6205345,9.39748707 L8.32779372,9.39748707 L8.32779372,6.68543976 Z M8.32779372,14.1769401 L15.447053,14.1769401 C17.1021641,14.1769401 17.60409,14.9147081 17.60409,15.8283814 C17.60409,16.7720621 17.1021641,17.4787879 15.447053,17.4787879 L8.32779372,17.4787879 L8.32779372,14.1769401 Z M0.174608538,22.6110865 L18.2242382,22.6110865 C24.3977196,22.6110865 26.4655715,19.8980044 26.4655715,15.7704361 C26.4655715,14.2069475 25.5789048,11.6708056 22.8618678,10.9620103 L22.8618678,10.904065 C24.4568308,10.2842572 25.3735715,8.66075388 25.3735715,6.80339985 C25.3735715,3.44153732 23.4529789,1.55417591 19.1399419,1.55417591 L0.174608538,1.55417591 L0.174608538,22.6110865 Z M34.9858678,22.6110865 L42.9917937,22.6110865 L42.9917937,16.6841094 L52.52009,1.55417591 L43.6565345,1.55417591 L38.9473493,9.19571323 L34.3211271,1.55417591 L25.4596456,1.55417591 L34.9858678,16.6841094 L34.9858678,22.6110865 Z M71.2863122,22.6110865 L81.7137196,22.6110865 L72.6697196,9.62512934 L81.4223122,1.55417591 L70.3737196,1.55417591 L61.8026085,9.62512934 L61.8026085,1.55417591 L53.7966826,1.55417591 L53.7966826,22.6110865 L61.8026085,22.6110865 L61.8026085,17.2749446 L65.5255715,14.2069475 L71.2863122,22.6110865 Z M80.7036456,12.0826312 C80.7036456,22.9949741 90.0691271,23.3488544 95.1215715,23.3488544 C100.172979,23.3488544 109.537423,22.9949741 109.537423,12.0826312 C109.537423,1.17028825 100.172979,0.816407982 95.1215715,0.816407982 C90.0691271,0.816407982 80.7036456,1.17028825 80.7036456,12.0826312 L80.7036456,12.0826312 Z M89.5672011,12.0826312 C89.5672011,7.80606061 91.7242382,6.12564671 95.1215715,6.12564671 C98.5178678,6.12564671 100.673868,7.80606061 100.673868,12.0826312 C100.673868,16.3602365 98.5178678,18.0406504 95.1215715,18.0406504 C91.7242382,18.0406504 89.5672011,16.3602365 89.5672011,12.0826312 L89.5672011,12.0826312 Z" id="Fill-1" fill="#0067A6"></path>
                        <g id="Group-5" transform="translate(0.182075, 31.895787)">
                            <mask id="mask-2" fill="white">
                                <use xlink:href="#path-1"></use>
                            </mask>
                            <g id="Clip-4"></g>
                            <path d="M1.50474074,0.0820546933 C1.07955556,0.0779157428 0.63362963,0.107923134 0.0642962963,0.180354767 C0.395111111,0.188632668 0.964444444,0.128617886 1.50474074,0.0820546933" id="Fill-3" fill="#FFD400" mask="url(#mask-2)"></path>
                        </g>
                    </g>
                    <polygon id="Fill-7" fill="#FFD400" points="2.54146667 32.1964819 2.55287407 32.1964819 2.56117037 32.1944124"></polygon>
                    <g id="Group-30" transform="translate(0.000000, 26.086770)" fill="#FFD400">
                        <path d="M111.362222,3.36538064 C111.232593,3.36951959 111.106074,3.37365854 110.980593,3.37779749 C110.989926,3.36745011 110.984741,3.34468588 110.924593,3.32399113 L111.364296,3.31881744 C111.364296,3.31881744 111.174519,3.31364375 110.825037,3.30536585 C110.759704,3.29605322 110.676741,3.28984479 110.548148,3.29191426 C110.494222,3.292949 110.448593,3.29398374 110.410222,3.29501848 C109.968444,3.2846711 109.383556,3.27121951 108.669037,3.25466371 C109.036148,3.00736142 109.312,2.81076127 109.314074,2.77247598 C109.671852,2.78282336 110.027556,2.79420547 110.136444,2.80558758 C110.045185,2.77661493 109.342074,2.74660754 108.967704,2.75281596 L108.900296,2.81386548 C108.039556,2.81490022 108.701185,2.77247598 107.861185,2.75695492 C107.818667,2.70521803 108.591259,2.71142646 109.272593,2.72280857 C108.659704,2.70211382 108.052,2.65141168 107.8,2.70107908 C107.225481,2.66693274 107.86637,2.6410643 107.174667,2.60277901 C106.68,2.60588322 106.028741,2.6410643 105.463556,2.59864006 L105.473926,2.58932742 C104.096741,2.50551367 103.360444,2.61933481 102.102519,2.53966001 L102.239407,2.52620843 C101.845333,2.49102735 101.111111,2.5034442 100.391407,2.47240207 L109.571259,2.27683666 C109.571259,2.27683666 108.300889,2.25614191 106.117926,2.22406504 C106.325333,2.19716186 106.535852,2.16922395 106.733926,2.14335551 C105.73837,2.13404287 104.713778,2.14128603 103.835407,2.15059867 C103.950519,2.14542498 103.937037,2.12886918 103.939111,2.11748707 C102.571259,2.11334812 101.580889,2.10920916 100.162222,2.10403548 C102.180296,2.02643016 104.641185,2.0605765 107.104148,2.08644494 C107.232741,2.06471545 107.347852,2.04298596 107.448444,2.02022173 C102.341037,1.91260902 97.130963,1.89191426 92.0816296,1.92606061 C91.1648889,1.94054693 90.2367407,1.95399852 89.2992593,1.96848485 C89.7617778,1.9809017 90.2274074,1.99228381 90.6992593,2.00470067 L89.1882963,1.98814486 C88.9466667,1.98607539 88.7081481,1.98297118 88.4644444,1.97986696 C88.1232593,1.98400591 87.7696296,1.98814486 87.4232593,1.99124908 C87.2054815,1.9891796 86.9856296,1.98711013 86.7657778,1.98504065 C87.0924444,1.97986696 87.4108148,1.97469327 87.7395556,1.96951959 C84.8908148,1.93019956 81.9134815,1.87121951 79.1197037,1.91674797 C79.0979259,1.91778271 79.073037,1.91778271 79.0512593,1.91881744 C78.5586667,1.91467849 78.0660741,1.91157428 77.5734815,1.90743533 C77.6460741,1.892949 78.1127407,1.9012269 78.1137778,1.87018477 C79.6299259,1.80603104 81.144,1.74187731 82.3957037,1.68807095 C84.4106667,1.62805617 86.4245926,1.68600148 88.1875556,1.58666667 C88.6936296,1.55252033 89.6995556,1.58252772 90.4545185,1.5711456 C90.7791111,1.55872875 91.1223704,1.54527716 91.4728889,1.53182557 C91.1026667,1.52044346 90.7303704,1.50906135 90.357037,1.49767923 C90.1071111,1.47284553 96.7503704,1.44801183 96.5025185,1.36730229 C96.3677037,1.36730229 91.0528889,1.35281596 87.1857778,1.34143385 C86.4318519,1.27624538 87.8463704,1.05895048 88.3524444,1.04549889 C88.4105185,1.04135994 88.4737778,1.03722099 88.5339259,1.0320473 C87.9562963,1.02273466 87.3776296,1.01238729 86.8062222,1.00203991 C85.8946667,1.01238729 84.978963,1.02273466 84.0622222,1.0320473 C82.5823704,1.04756837 81.0911111,1.06308943 79.5925926,1.0786105 C79.9918519,1.06412417 80.3931852,1.04963784 80.7955556,1.03515152 C80.9894815,1.02687361 81.1865185,1.01859571 81.3845926,1.01031781 C82.9899259,0.951337768 84.8607407,0.97203252 86.8062222,1.00203991 C87.8391111,0.98962306 88.8657778,0.976171471 89.8851852,0.962719882 C89.9131852,0.961685144 89.937037,0.960650407 89.962963,0.959615669 C88.6677037,0.938920916 87.3434074,0.918226164 86.0512593,0.897531412 C83.6764444,0.923399852 81.2663704,0.948233555 78.8386667,0.975136733 C79.238963,0.960650407 79.6382222,0.94616408 80.0416296,0.931677753 C81.7682963,0.843725055 83.8641481,0.861315595 86.0512593,0.897531412 C88.2985185,0.864419808 90.5167407,0.831308204 92.6872593,0.799231338 C91.2219259,0.781640798 89.5522963,0.766119734 88.1045926,0.769223947 C82.2764444,0.809578714 76.9294815,0.873732446 71.5213333,0.955476718 C70.866963,0.998935698 70.2146667,1.03411678 69.5592593,1.04342942 C68.0493333,1.07550628 66.2842963,1.07757576 64.7722963,1.09413156 C65.0242963,1.13345159 64.2672593,1.13241685 64.2672593,1.15207687 C62.7562963,1.23071693 60.9933333,1.21726534 59.2282963,1.22140429 C58.9773333,1.22347376 58.9762963,1.20381375 58.717037,1.18932742 C56.3266667,1.38696231 53.1325926,1.38696231 50.0277037,1.44387288 C51.8134815,1.38489283 53.565037,1.32694752 55.329037,1.26796748 C51.0284444,1.39110126 46.9674074,1.50699187 42.7539259,1.62702143 C38.7260741,1.74601626 34.9554074,1.94158167 31.1878519,2.16198078 C29.652,2.25407243 28.110963,2.30063562 26.5751111,2.36065041 L26.9515556,2.30580931 C25.0402963,2.38134516 23.1995556,2.45688101 21.253037,2.59036216 C21.0767407,2.60277901 20.9014815,2.61416112 20.7241481,2.62554324 C16.7108148,2.89457502 13.2678519,3.12739098 9.18607407,3.44402069 C8.1842963,3.52059128 7.18666667,3.62716925 6.18592593,3.71201774 C5.43925926,3.79997044 6.70859259,3.80203991 5.46311111,3.9365558 L5.65703704,3.93759054 C6.60281481,3.82169993 7.43866667,3.72443459 7.71140741,3.74099039 C7.8202963,3.75651146 7.73007407,3.78444937 7.52474074,3.82169993 C6.04696296,3.90965262 4.29540741,4.02554324 2.72222222,4.22731707 L1.26414815,4.25318551 L1.0557037,4.28836659 C1.0557037,4.28836659 0.965481481,4.3711456 0.854518519,4.49634885 C0.283111111,4.56671101 0,4.60706578 0,4.60706578 L0.774666667,4.59050998 C0.641925926,4.75503326 0.501925926,4.965085 0.452148148,5.17720621 C0.434518519,5.26722838 0.436592593,5.35518108 0.453185185,5.44002956 C0.329777778,5.45865484 0.240592593,5.47521064 0.245777778,5.48659276 C0.149333333,5.53832964 0.252,5.54971175 0.483259259,5.5372949 C0.60562963,5.82495196 1.02148148,6.04535107 2.05955556,6.04949002 L2.0242963,6.09915743 L2.5842963,6.03396896 C3.26459259,5.98637103 3.56844444,5.90462676 3.53111111,5.95325942 L2.60296296,6.04121212 C3.2842963,5.98533629 2.81451852,6.05673319 2.56044444,6.10743533 C2.84459259,6.08363636 3.12148148,6.06087214 3.34859259,6.0515595 C3.47925926,6.02051737 3.24696296,6.0432816 3.14014815,6.04431633 C3.50103704,5.98947524 4.00711111,5.90462676 4.45718519,5.88186253 C5.15718519,5.82288248 4.51318519,5.947051 5.33140741,5.88082779 C9.65066667,5.54764228 13.8682963,5.33759054 18.2663704,5.10787879 C18.368,5.12133038 18.2487407,5.12650407 18.1232593,5.14099039 C18.6262222,5.10580931 19.1053333,5.07994087 19.5771852,5.05510717 L84.9198519,4.20144863 C88.2373333,4.25215078 91.5340741,4.31009608 92.5275556,4.35148559 C93.3291852,4.39908352 92.6685926,4.44357724 92.6592593,4.45288987 C93.6371852,4.4508204 93.0834074,4.40115299 93.913037,4.42288248 C94.1391111,4.43736881 93.8642963,4.46634146 93.7367407,4.47151515 C94.1007407,4.47254989 94.4377778,4.49841833 94.4668148,4.47254989 C94.0125926,4.4425425 94.2075556,4.37631929 94.0167407,4.32768662 L95.0848889,4.3545898 L95.0361481,4.39804878 C95.2736296,4.40425721 95.6448889,4.28836659 96.6933333,4.33389505 C98.4677037,4.37631929 100.385185,4.42184775 102.165778,4.46427199 C102.136741,4.49014043 101.76237,4.49738359 101.388,4.50462676 C101.626519,4.51083518 101.990519,4.51290466 102.209333,4.53670362 C101.781037,4.47979305 102.958074,4.52118256 102.622074,4.49427938 C103.930815,4.41356984 105.613926,4.55118995 106.768148,4.50462676 C106.808593,4.4673762 107.208889,4.20972653 107.679704,3.90447894 L108.867111,3.88895787 C109.093185,3.95518108 107.952444,3.92931264 108.22,3.97277162 C108.844296,3.94586844 109.358667,3.91379157 109.783852,3.87654102 L110.086667,3.87240207 C110.086667,3.87240207 110.015111,3.87136733 109.888593,3.86826312 C111.219111,3.74512934 111.58,3.57129342 111.362222,3.36538064 M100.057481,2.51068736 C99.8842963,2.50137472 99.7297778,2.4951663 99.5752593,2.48999261 L100.277333,2.47447154 C100.399704,2.49206208 100.412148,2.51379157 100.057481,2.51068736 M93.437037,2.05436807 C93.409037,2.05540281 93.381037,2.05540281 93.353037,2.05540281 L93.3405926,2.05540281 C93.3727407,2.05540281 93.4038519,2.05540281 93.437037,2.05436807 M68.8011852,1.54941611 C71.653037,1.43559497 74.901037,1.42110865 78.0494815,1.40765706 C78.3263704,1.4004139 78.6022222,1.39420547 78.8739259,1.38696231 C79.465037,1.37661493 79.9783704,1.38282336 80.473037,1.39730968 L80.696,1.39524021 L80.5663704,1.39937916 C81.3078519,1.42214339 82.0192593,1.4583592 82.9028148,1.47698448 L83.1548148,1.46042868 L83.1537778,1.51837398 C80.8857778,1.63736881 78.118963,1.51630451 75.598963,1.56183296 C72.325037,1.61874353 68.8001481,1.62495196 65.5282963,1.75946785 C65.0242963,1.77912786 64.2672593,1.75843311 63.7653333,1.75843311 C65.5002963,1.68600148 67.0672593,1.62081301 68.8011852,1.54941611 M47.1374815,1.60011826 C49.644,1.5628677 52.585037,1.46974132 55.244,1.35902439 C56.1244444,1.57838877 53.0174815,1.60529194 49.3868148,1.68703622 C46.3368889,1.74498152 42.9198519,1.83293422 41.1703704,2.00677014 C40.8748148,2.00987435 40.5896296,2.01504804 40.3179259,2.02125647 C40.9515556,1.83396896 45.414963,1.62495196 47.1374815,1.60011826 M107.812444,3.81859571 C107.825926,3.80928307 107.840444,3.79997044 107.854963,3.7906578 C108.039556,3.80307465 108.210667,3.81756098 108.382815,3.8320473 C108.205481,3.82790835 108.01363,3.8237694 107.812444,3.81859571 M110.328296,3.41815225 C110.170667,3.37469327 109.97363,3.35399852 109.763111,3.3395122 L110.233926,3.33330377 C110.30963,3.36331116 110.592741,3.40159645 110.328296,3.41815225" id="Fill-8"></path>
                        <path d="M105.854726,2.55890613 C106.732059,2.5495935 107.756652,2.54338507 108.752207,2.55373245 C108.877689,2.53407243 109.002133,2.51441242 109.121393,2.49682188 C106.660504,2.46888396 104.197541,2.43370288 102.180504,2.51027347 C103.602281,2.51648189 104.589541,2.52062084 105.95843,2.52579453 C105.959467,2.51337768 105.982281,2.50820399 106.208356,2.52889874 C106.120207,2.52786401 106.040356,2.52682927 105.95843,2.52579453 C105.954281,2.53717664 105.9688,2.55373245 105.854726,2.55890613" id="Fill-10"></path>
                        <path d="M109.316978,2.38155211 C109.402015,2.38258684 109.482904,2.38362158 109.567941,2.38465632 C109.342904,2.36396157 109.319052,2.36913525 109.316978,2.38155211" id="Fill-12"></path>
                        <path d="M90.718963,1.06577975 C91.8524444,1.02128603 92.54,1.00473023 92.930963,1.00266075 C93.1124444,0.978861789 93.3437037,0.94781966 93.6444444,0.90849963 C93.5780741,0.907464893 93.5085926,0.906430155 93.4432593,0.905395418 C92.2682963,0.925055432 91.082963,0.94368071 89.8851852,0.963340724 C89.3946667,0.983000739 88.926963,1.00473023 88.5339259,1.03266814 C89.262963,1.04405026 89.9951111,1.05439763 90.718963,1.06577975" id="Fill-14"></path>
                        <path d="M92.9307556,1.00276423 C91.4509037,1.21902439 94.456237,0.996555802 92.9307556,1.00276423" id="Fill-16"></path>
                        <path d="M71.572563,1.50140429 C72.5639704,1.49312639 73.5595259,1.48381375 74.542637,1.47553585 C72.5235259,1.48277901 70.4878222,1.49933481 68.8016,1.54900222 C69.0473778,1.55624538 69.3097481,1.56452328 69.556563,1.57176644 C70.0595259,1.53451589 70.8144889,1.49830007 71.572563,1.50140429" id="Fill-18"></path>
                        <path d="M92.0820444,1.92637103 C92.9324148,1.90981523 93.7796741,1.89429416 94.6300444,1.87773836 C98.6724148,1.82186253 103.39197,1.9201626 107.734044,1.93878788 C107.863674,1.88291205 107.880267,1.82496674 107.725748,1.76184775 C103.013452,1.62629712 98.2980444,1.66872136 93.5878222,1.58076866 L93.4768593,1.58594235 C91.4587852,1.67906874 88.1869333,1.60456763 85.6679704,1.67906874 C83.1490074,1.77116038 80.6310815,1.79185514 78.1141926,1.86946046 C81.7510815,1.89739837 85.208563,1.88498152 88.792563,1.95741316 C89.8824889,1.94706578 90.978637,1.9367184 92.0820444,1.92637103" id="Fill-20"></path>
                        <path d="M87.7391407,1.96972653 C87.9828444,1.97283075 88.223437,1.97593496 88.4650667,1.98007391 C88.7461037,1.97593496 89.0229926,1.97179601 89.2998815,1.9686918 C89.1298074,1.96455285 88.9597333,1.96144863 88.7927704,1.95834442 C88.4401778,1.96144863 88.0886222,1.96558758 87.7391407,1.96972653" id="Fill-22"></path>
                        <path d="M80.5667852,1.39979305 L80.4724148,1.39668884 C79.6759704,1.40082779 78.8660444,1.403932 78.0498963,1.40807095 C76.9133037,1.42980044 75.7373037,1.45256467 74.542637,1.4753289 C76.7214519,1.46498152 78.8774519,1.45670362 80.5667852,1.39979305" id="Fill-24"></path>
                        <path d="M73.5918815,0.884079823 C73.3398815,0.883045085 72.8369185,0.88097561 72.5838815,0.879940872 L72.1255111,0.913052476 C72.3609185,0.915121951 72.599437,0.917191426 72.8369185,0.919260902 L73.5918815,0.884079823 Z" id="Fill-26"></path>
                        <path d="M58.7172444,1.18932742 C63.1785778,1.10758315 67.3682074,1.03101256 71.5205037,0.955476718 C71.7206519,0.940990392 71.9228741,0.927538803 72.1250963,0.913052476 C69.3406519,0.887184035 66.5696889,0.908913525 64.0165037,1.01445676 C63.5135407,1.03411678 62.7554667,1.09620103 62.2525037,1.09620103 C59.8662815,1.11689579 57.5941333,1.19553585 55.3282074,1.26796748 C56.4108741,1.24313378 57.5049481,1.21726534 58.6239111,1.1913969 L58.7172444,1.18932742 Z" id="Fill-28"></path>
                    </g>
                </g>
            </g>
        </g>
    </g>
</svg>